<svg width="50" height="50" viewBox="0 0 50 50" fill="none" xmlns="http://www.w3.org/2000/svg">
<circle cx="25" cy="25" r="25" fill="white"/>
<path d="M25 28C26.6569 28 28 26.6569 28 25C28 23.3431 26.6569 22 25 22C23.3431 22 22 23.3431 22 25C22 26.6569 23.3431 28 25 28Z" stroke="#D30F45" stroke-width="1.5" stroke-miterlimit="10" stroke-linecap="round" stroke-linejoin="round"/>
<path d="M15 25.8799V24.1199C15 23.0799 15.85 22.2199 16.9 22.2199C18.71 22.2199 19.45 20.9399 18.54 19.3699C18.02 18.4699 18.33 17.2999 19.24 16.7799L20.97 15.7899C21.76 15.3199 22.78 15.5999 23.25 16.3899L23.36 16.5799C24.26 18.1499 25.74 18.1499 26.65 16.5799L26.76 16.3899C27.23 15.5999 28.25 15.3199 29.04 15.7899L30.77 16.7799C31.68 17.2999 31.99 18.4699 31.47 19.3699C30.56 20.9399 31.3 22.2199 33.11 22.2199C34.15 22.2199 35.01 23.0699 35.01 24.1199V25.8799C35.01 26.9199 34.16 27.7799 33.11 27.7799C31.3 27.7799 30.56 29.0599 31.47 30.6299C31.99 31.5399 31.68 32.6999 30.77 33.2199L29.04 34.2099C28.25 34.6799 27.23 34.3999 26.76 33.6099L26.65 33.4199C25.75 31.8499 24.27 31.8499 23.36 33.4199L23.25 33.6099C22.78 34.3999 21.76 34.6799 20.97 34.2099L19.24 33.2199C18.33 32.6999 18.02 31.5299 18.54 30.6299C19.45 29.0599 18.71 27.7799 16.9 27.7799C15.85 27.7799 15 26.9199 15 25.8799Z" stroke="#D30F45" stroke-width="1.5" stroke-miterlimit="10" stroke-linecap="round" stroke-linejoin="round"/>
</svg>
