<svg width="4" height="764" viewBox="0 0 4 764" fill="none" xmlns="http://www.w3.org/2000/svg">
<rect y="-10" width="4" height="654" rx="2" fill="white"/>
<circle cx="2" cy="648" r="2" fill="white"/>
<circle cx="2" cy="654" r="2" fill="white"/>
<circle cx="2" cy="660" r="2" fill="white"/>
<circle cx="2" cy="666" r="2" fill="white"/>
<circle cx="2" cy="672" r="2" fill="white"/>
<circle cx="2" cy="678" r="2" fill="white" fill-opacity="0.8"/>
<circle cx="2" cy="684" r="2" fill="white" fill-opacity="0.8"/>
<circle cx="2" cy="690" r="2" fill="white" fill-opacity="0.8"/>
<circle cx="2" cy="696" r="2" fill="white" fill-opacity="0.8"/>
<circle cx="2" cy="702" r="2" fill="white" fill-opacity="0.8"/>
<circle cx="2" cy="708" r="2" fill="white" fill-opacity="0.6"/>
<circle cx="2" cy="714" r="2" fill="white" fill-opacity="0.6"/>
<circle cx="2" cy="720" r="2" fill="white" fill-opacity="0.6"/>
<circle cx="2" cy="726" r="2" fill="white" fill-opacity="0.6"/>
<circle cx="2" cy="732" r="2" fill="white" fill-opacity="0.6"/>
<circle cx="2" cy="738" r="2" fill="white" fill-opacity="0.4"/>
<circle cx="2" cy="744" r="2" fill="white" fill-opacity="0.4"/>
<circle cx="2" cy="750" r="2" fill="white" fill-opacity="0.4"/>
<circle cx="2" cy="756" r="2" fill="white" fill-opacity="0.4"/>
<circle cx="2" cy="762" r="2" fill="white" fill-opacity="0.4"/>
</svg>
