<svg width="50" height="50" viewBox="0 0 50 50" fill="none" xmlns="http://www.w3.org/2000/svg">
<circle cx="25" cy="25" r="25" fill="white"/>
<path d="M34.6602 23.44L33.6802 27.62C32.8402 31.23 31.1802 32.69 28.0602 32.39C27.5602 32.35 27.0202 32.26 26.4402 32.12L24.7602 31.72C20.5902 30.73 19.3002 28.67 20.2802 24.49L21.2602 20.3C21.4602 19.45 21.7002 18.71 22.0002 18.1C23.1702 15.68 25.1602 15.03 28.5002 15.82L30.1702 16.21C34.3602 17.19 35.6402 19.26 34.6602 23.44Z" stroke="#D30F45" stroke-width="1.5" stroke-linecap="round" stroke-linejoin="round"/>
<path d="M28.0599 32.3901C27.4399 32.8101 26.6599 33.1601 25.7099 33.4701L24.1299 33.9901C20.1599 35.2701 18.0699 34.2001 16.7799 30.2301L15.4999 26.2801C14.2199 22.3101 15.2799 20.2101 19.2499 18.9301L20.8299 18.4101C21.2399 18.2801 21.6299 18.1701 21.9999 18.1001C21.6999 18.7101 21.4599 19.4501 21.2599 20.3001L20.2799 24.4901C19.2999 28.6701 20.5899 30.7301 24.7599 31.7201L26.4399 32.1201C27.0199 32.2601 27.5599 32.3501 28.0599 32.3901Z" stroke="#D30F45" stroke-width="1.5" stroke-linecap="round" stroke-linejoin="round"/>
</svg>
